PathFileType	4	(X/Y/Z)	TVC_39_Cal_03_0_static_RCNL2025.trc
DataRate	CameraRate	NumFrames	NumMarkers	Units	OrigDataRate	OrigDataStartFrame	OrigNumFrames
100	100	12	27	mm	100	183	292
Frame#	Time	R_Shoulder			L_Shoulder			C7			J_Notch			R_Elbow			L_Elbow			R_Wrist			L_Wrist			R_Asis			L_Asis			R_Psis			L_Psis			Sacral			Thoracic			Sternum			R_Thigh_Lateral			R_Knee_Lateral			R_Shank_Lateral			R_Ankle_Lateral			R_Heel			R_Toe			L_Thigh_Lateral			L_Knee_Lateral			L_Shank_Lateral			L_Ankle_Lateral			L_Heel			L_Toe		
		X1	Y1	Z1	X2	Y2	Z2	X3	Y3	Z3	X4	Y4	Z4	X5	Y5	Z5	X6	Y6	Z6	X7	Y7	Z7	X8	Y8	Z8	X9	Y9	Z9	X10	Y10	Z10	X11	Y11	Z11	X12	Y12	Z12	X13	Y13	Z13	X14	Y14	Z14	X15	Y15	Z15	X16	Y16	Z16	X17	Y17	Z17	X18	Y18	Z18	X19	Y19	Z19	X20	Y20	Z20	X21	Y21	Z21	X22	Y22	Z22	X23	Y23	Z23	X24	Y24	Z24	X25	Y25	Z25	X26	Y26	Z26	X27	Y27	Z27
183	1.82000000	-204.329666	1478.654541	-0.803424	-173.231552	1470.899170	-386.196686	-239.058228	1553.118896	-204.353638	-97.252975	1420.677856	-193.031082	-173.367065	1142.332520	83.970985	-183.509003	1157.011353	-493.981903	-105.006699	906.408630	15.291580	-155.800285	898.152588	-506.172180	-167.514954	940.812988	-36.260941	-127.737526	941.338074	-329.325500	-353.100800	986.428772	-149.708267	-338.251984	981.311340	-256.527039	-345.676392	983.870056	-203.117653	-338.500458	1226.273682	-209.193985	-60.862213	1260.403687	-173.871307	-230.041992	747.922607	38.631161	-225.156662	459.437103	-16.427252	-267.064362	304.807953	33.521927	-270.758606	77.974655	-58.588261	-311.630035	60.203167	-112.623489	-123.802788	46.923779	-49.536114	-203.583313	699.340515	-412.276886	-232.153778	473.218994	-351.577545	-249.988602	341.619751	-392.831848	-261.580750	75.192986	-299.845062	-299.226105	57.753132	-238.944595	-117.509415	42.981602	-319.857239
184	1.83000000	-204.107407	1478.436157	-0.954872	-173.178009	1470.922607	-386.320587	-239.083252	1553.078491	-204.511414	-97.246216	1420.602051	-193.098297	-174.020966	1142.755737	84.289116	-183.420944	1156.995361	-494.075073	-104.817055	906.390656	15.061131	-155.774986	898.168640	-506.353165	-167.422897	940.826233	-36.519176	-127.601288	941.278381	-329.289734	-352.823669	986.365845	-149.964066	-338.137909	981.156677	-256.564056	-345.480789	983.761261	-203.264061	-338.451569	1226.256348	-209.322983	-60.799881	1260.434204	-173.972427	-230.194977	748.078613	38.584801	-225.143555	459.545593	-16.520218	-267.471283	305.258636	33.606285	-270.810089	77.984985	-58.558926	-311.646606	60.265232	-112.603455	-123.832642	46.891010	-49.495125	-203.709229	698.806519	-412.660156	-232.117981	473.272644	-351.628815	-249.926743	341.557343	-392.808441	-261.488190	75.268127	-300.192657	-299.252533	57.767952	-238.937744	-117.433708	42.991058	-319.849426
185	1.84000000	-204.080887	1478.478149	-1.070866	-173.201431	1470.874878	-386.539856	-239.103149	1553.131958	-204.539169	-97.237503	1420.657471	-193.344025	-173.672775	1142.519287	84.056770	-183.467194	1156.984863	-494.291748	-104.656521	906.463989	14.981878	-155.790077	898.137177	-506.435989	-167.324203	940.781799	-36.589653	-127.489838	941.246948	-329.077454	-352.815277	986.471130	-150.024673	-338.017914	981.174255	-256.651093	-345.416595	983.822693	-203.337883	-338.388641	1226.254761	-209.466415	-60.812904	1260.490845	-174.121094	-229.960815	747.869080	38.495308	-225.067413	459.570435	-16.524622	-267.381897	305.163971	33.553024	-270.830841	77.999222	-58.551422	-311.630615	60.259560	-112.625366	-123.848976	46.934677	-49.502327	-203.611038	698.768433	-412.733673	-232.050964	473.220947	-351.638550	-249.821457	341.530823	-392.912445	-261.387207	75.264618	-300.143555	-299.233795	57.814171	-238.941025	-117.412285	43.095139	-319.733002
186	1.85000000	-204.034790	1478.465210	-1.276441	-173.144409	1470.937866	-386.504211	-239.103561	1553.061646	-204.716492	-97.202171	1420.676514	-193.406647	-173.627487	1142.524902	84.022896	-183.501556	1156.955933	-494.223267	-104.589176	906.414001	14.821474	-155.791878	898.125916	-506.543091	-167.274796	940.878479	-36.638855	-127.418617	941.349854	-329.395874	-352.764709	986.431396	-150.121262	-337.937866	981.169861	-256.695435	-345.351288	983.800629	-203.408348	-338.308594	1226.195679	-209.552994	-60.726536	1260.496582	-174.193146	-229.734085	747.888977	38.412804	-225.083054	459.605957	-16.561848	-267.243317	304.884766	33.412601	-270.800842	78.077408	-58.553173	-311.653656	60.175362	-112.619797	-123.856461	46.925571	-49.502693	-203.550613	698.765015	-412.760132	-231.994461	473.265930	-351.627228	-249.740326	341.567535	-392.874359	-261.562439	75.181099	-299.846710	-299.245880	57.807625	-238.918549	-117.436600	43.003239	-319.842133
187	1.86000000	-204.082474	1478.500732	-1.371714	-173.113113	1470.943848	-386.573547	-239.099686	1553.132324	-204.739990	-97.144981	1420.673340	-193.483673	-173.938385	1142.842773	84.130463	-183.536575	1157.229004	-494.528595	-104.509453	906.437744	14.696483	-155.906166	898.147583	-506.639481	-167.221207	940.867249	-36.675476	-127.354027	941.342590	-329.385986	-352.697876	986.390503	-150.128372	-337.830536	981.113220	-256.782715	-345.264206	983.751862	-203.455544	-338.300964	1226.191772	-209.576630	-60.708683	1260.487183	-174.245209	-229.677994	747.819702	38.378693	-224.995941	459.706543	-16.691439	-267.118561	304.913605	33.443764	-270.813995	78.082611	-58.537224	-311.623352	60.251373	-112.608566	-123.837296	46.907047	-49.494442	-203.234634	699.193176	-412.560974	-231.956757	473.258759	-351.693817	-249.663773	341.569580	-392.864258	-261.578186	75.200455	-299.767578	-299.265808	57.860950	-238.901596	-117.438660	43.037235	-319.829803
188	1.87000000	-204.484833	1478.735107	-1.328251	-173.162903	1470.913574	-386.734009	-239.125092	1553.173096	-204.839401	-97.069008	1420.756226	-193.618820	-173.785538	1142.608765	84.059105	-183.392502	1157.105103	-494.687317	-104.415207	906.463776	14.568565	-155.846176	898.126892	-506.743790	-167.052689	940.739441	-36.595062	-127.198349	941.330566	-329.403839	-352.532440	986.285095	-150.288284	-337.727570	981.165039	-256.973785	-345.130005	983.725067	-203.631035	-338.274689	1226.167603	-209.716141	-60.620880	1260.536743	-174.340424	-229.582077	747.893738	38.311111	-224.887146	459.687012	-16.714716	-267.146759	304.932953	33.446053	-270.892578	78.005219	-58.617691	-311.632233	60.233093	-112.622856	-123.769569	46.895775	-49.510731	-203.069809	699.202698	-412.596283	-231.912415	473.258942	-351.727966	-249.573975	341.539886	-392.756104	-261.435150	75.288658	-300.083344	-299.295258	57.716030	-238.933319	-117.367546	43.139042	-319.715271
189	1.88000000	-204.236069	1478.607178	-1.499913	-173.169617	1470.906006	-386.838104	-239.098679	1553.189453	-204.940186	-97.125351	1420.741211	-193.661789	-173.945465	1142.789429	84.002083	-183.438049	1157.046753	-494.817047	-104.363316	906.480286	14.331933	-155.881897	898.164124	-506.809921	-166.946030	940.729553	-36.578533	-127.088310	941.308594	-329.480164	-352.426208	986.369507	-150.334488	-337.622284	981.213257	-257.092316	-345.024246	983.791382	-203.713402	-338.263489	1226.192139	-209.740768	-60.567795	1260.553955	-174.356400	-229.580704	747.803406	38.129608	-224.900360	459.633606	-16.756098	-267.292145	304.775757	33.399925	-270.787231	78.041458	-58.560444	-311.614288	60.229836	-112.663979	-123.772873	46.903919	-49.526741	-202.933594	699.198853	-412.646912	-231.876953	473.241180	-351.738770	-249.454422	341.573120	-392.601959	-261.387970	75.369370	-300.129364	-299.265900	57.826862	-238.905426	-117.396973	43.151768	-319.654907
190	1.89000000	-204.120377	1478.587402	-1.667641	-173.240204	1470.810547	-386.890594	-239.104431	1553.180786	-205.077103	-97.053406	1420.723877	-193.899323	-173.788010	1142.742920	83.950134	-183.511337	1157.088135	-494.980896	-104.167843	906.541290	14.225688	-155.964401	898.072479	-506.855377	-166.843857	940.689941	-36.657677	-127.014053	941.321533	-329.462677	-352.414490	986.379700	-150.364075	-337.558472	981.155640	-257.247040	-344.986481	983.767670	-203.805557	-338.204956	1226.125732	-209.922134	-60.474136	1260.558350	-174.486389	-229.518127	747.846069	38.072132	-224.888351	459.615234	-16.797209	-267.288330	304.850128	33.401951	-270.740265	78.043816	-58.720436	-311.675079	60.279499	-112.673309	-123.803070	46.816780	-49.486057	-202.885666	699.125183	-412.814850	-231.776917	473.240265	-351.784698	-249.477432	341.506714	-392.898315	-261.436157	75.267532	-300.113434	-299.265472	57.786774	-238.940430	-117.407440	43.070389	-319.798798
191	1.90000000	-204.214310	1478.616821	-1.740617	-173.180038	1470.810669	-386.986816	-239.238312	1553.008301	-205.315369	-97.105263	1420.808228	-193.909088	-173.841324	1142.952881	83.834290	-183.440857	1157.086426	-495.048370	-104.025822	906.651215	13.956080	-155.877327	898.155151	-506.963150	-166.579895	940.982300	-36.880150	-126.933220	941.375488	-329.427338	-352.266968	986.358398	-150.484619	-337.554474	981.144775	-257.277557	-344.910721	983.751587	-203.881088	-338.111328	1226.098022	-209.986588	-60.521278	1260.588623	-174.598602	-229.350235	747.744507	37.971924	-224.901489	459.525238	-16.756746	-267.212189	304.943115	33.366932	-270.836945	78.081978	-58.634731	-311.636963	60.301498	-112.631157	-123.841972	46.881992	-49.490906	-202.763412	699.152344	-412.850555	-231.760056	473.202026	-351.831696	-249.405991	341.448792	-392.836304	-261.542633	75.270439	-299.774475	-299.252167	57.889378	-238.928909	-117.407791	43.204128	-319.711914
192	1.91000000	-204.255219	1478.626099	-1.805183	-173.177795	1470.764282	-387.073181	-239.231430	1553.087891	-205.470703	-97.057327	1420.790649	-194.101044	-173.718857	1142.874390	83.659088	-183.462952	1157.209229	-495.117920	-103.921623	906.631226	13.673323	-155.713089	898.158356	-507.096756	-166.717255	940.960999	-37.105263	-126.846306	941.353699	-329.531830	-352.087769	986.260925	-150.605423	-337.429596	981.133911	-257.384583	-344.758682	983.697418	-203.995003	-338.001892	1226.043823	-210.077332	-60.469185	1260.590942	-174.694000	-229.292267	747.705811	37.898342	-224.916016	459.475586	-16.790642	-267.125641	304.899384	33.364479	-270.748260	78.086807	-58.558548	-311.609283	60.247356	-112.679977	-123.818924	46.841572	-49.504013	-202.857071	698.588684	-413.245972	-231.723541	473.229065	-351.920105	-249.305832	341.526703	-392.912537	-261.443176	75.302055	-300.075531	-299.207489	57.748863	-239.012848	-117.388229	43.054070	-319.730042
193	1.92000000	-204.230148	1478.718750	-1.891191	-173.127319	1470.792969	-387.205139	-239.205215	1553.040649	-205.531876	-97.018867	1420.714844	-194.190079	-173.589569	1142.958008	83.627739	-183.409271	1157.029297	-495.279266	-103.785561	906.674469	13.515995	-155.766861	898.175232	-507.074982	-166.677826	940.917053	-37.180096	-126.754868	941.331482	-329.645691	-351.882385	986.242493	-150.770691	-337.325073	981.099915	-257.453217	-344.603729	983.671204	-204.111954	-337.900635	1226.067627	-210.129059	-60.452587	1260.618164	-174.687286	-229.216309	747.770996	37.856468	-224.907532	459.442993	-16.822697	-267.226715	305.026367	33.400452	-270.652313	77.998283	-58.489594	-311.605682	60.255775	-112.657532	-123.842606	46.915493	-49.531063	-202.822815	698.616333	-413.230652	-231.656174	473.184479	-351.962158	-249.235199	341.394928	-392.888977	-261.435089	75.214905	-300.073029	-299.234894	57.893681	-238.938980	-117.368500	43.107304	-319.807037
194	1.93000000	-204.240112	1478.697754	-1.995001	-173.133575	1470.905762	-387.307983	-239.235779	1553.022705	-205.583298	-97.017479	1420.822510	-194.393707	-173.453125	1142.995850	83.552475	-183.238129	1157.009766	-495.348267	-103.667423	906.689972	13.384809	-155.683914	898.158844	-507.205063	-166.529770	940.955811	-37.276020	-126.729485	941.278870	-329.695068	-351.915985	986.238464	-150.848373	-337.243103	980.730469	-257.544006	-344.579544	983.484467	-204.196190	-337.930695	1226.051270	-210.216217	-60.388241	1260.574829	-174.870651	-228.988159	747.656921	37.673626	-224.842850	459.492737	-16.857367	-267.272552	305.069153	33.402290	-270.699402	78.046043	-58.617634	-311.607422	60.240234	-112.660347	-123.793625	46.910694	-49.498734	-202.584915	699.065918	-413.047821	-231.567444	473.181458	-351.938751	-249.211990	341.385529	-392.967377	-261.426605	75.216232	-300.110992	-299.274689	57.879253	-238.898941	-117.433006	43.047287	-319.830017
